<svg xmlns="http://www.w3.org/2000/svg" xmlns:xlink="http://www.w3.org/1999/xlink" width="500" zoomAndPan="magnify" viewBox="0 0 375 374.999991" height="500" preserveAspectRatio="xMidYMid meet" version="1.0"><defs><clipPath id="id1"><path d="M 112.5 112.5 L 262.5 112.5 L 262.5 262.5 L 112.5 262.5 Z M 112.5 112.5 " clip-rule="nonzero"/></clipPath></defs><path fill="#0c0b0b" d="M 114.175781 244.441406 L 114.175781 130.558594 C 114.175781 121.507812 121.507812 114.175781 130.558594 114.175781 L 244.441406 114.175781 C 253.492188 114.175781 260.824219 121.507812 260.824219 130.558594 L 260.824219 244.484375 C 260.824219 253.492188 253.492188 260.824219 244.441406 260.824219 L 130.515625 260.824219 C 121.507812 260.824219 114.175781 253.492188 114.175781 244.441406 Z M 114.175781 244.441406 " fill-opacity="1" fill-rule="nonzero"/><g clip-path="url(#id1)"><path fill="#00ff00" d="M 112.5 244.441406 L 112.5 130.558594 C 112.5 120.585938 120.585938 112.5 130.558594 112.5 L 244.441406 112.5 C 254.414062 112.5 262.5 120.585938 262.5 130.558594 L 262.5 244.484375 C 262.5 254.414062 254.414062 262.5 244.441406 262.5 L 130.515625 262.5 C 120.585938 262.5 112.5 254.414062 112.5 244.441406 Z M 259.148438 130.558594 C 259.148438 122.429688 252.570312 115.851562 244.441406 115.851562 L 130.515625 115.851562 C 122.429688 115.851562 115.851562 122.429688 115.851562 130.558594 L 115.851562 244.484375 C 115.851562 252.570312 122.429688 259.191406 130.558594 259.191406 L 244.441406 259.191406 C 252.527344 259.191406 259.148438 252.613281 259.148438 244.523438 Z M 259.148438 130.558594 " fill-opacity="1" fill-rule="nonzero"/></g><path fill="#00ff00" d="M 223.367188 242.597656 C 231.453125 242.597656 238.03125 236.019531 238.03125 227.933594 C 238.03125 219.847656 231.453125 213.269531 223.367188 213.269531 C 215.28125 213.269531 208.699219 219.847656 208.699219 227.933594 C 208.699219 236.0625 215.238281 242.597656 223.367188 242.597656 Z M 151.675781 161.691406 C 159.761719 161.691406 166.339844 155.113281 166.339844 147.023438 C 166.339844 138.9375 159.761719 132.359375 151.675781 132.359375 C 143.589844 132.359375 137.011719 138.9375 137.011719 147.023438 C 137.011719 155.113281 143.546875 161.691406 151.675781 161.691406 Z M 208.699219 147.023438 C 208.699219 155.113281 215.28125 161.691406 223.367188 161.691406 C 231.453125 161.691406 238.03125 155.113281 238.03125 147.023438 C 238.03125 138.9375 231.453125 132.359375 223.367188 132.359375 C 215.28125 132.359375 208.699219 138.9375 208.699219 147.023438 Z M 137.011719 227.933594 C 137.011719 236.019531 143.589844 242.597656 151.675781 242.597656 C 159.761719 242.597656 166.339844 236.019531 166.339844 227.933594 C 166.339844 219.847656 159.761719 213.269531 151.675781 213.269531 C 143.589844 213.269531 137.011719 219.847656 137.011719 227.933594 Z M 223.367188 202.164062 C 231.453125 202.164062 238.03125 195.585938 238.03125 187.5 C 238.03125 179.414062 231.453125 172.835938 223.367188 172.835938 C 215.28125 172.835938 208.699219 179.414062 208.699219 187.5 C 208.699219 195.585938 215.238281 202.164062 223.367188 202.164062 Z M 151.675781 202.164062 C 159.761719 202.164062 166.339844 195.585938 166.339844 187.5 C 166.339844 179.414062 159.761719 172.835938 151.675781 172.835938 C 143.589844 172.835938 137.011719 179.414062 137.011719 187.5 C 137.011719 195.585938 143.546875 202.164062 151.675781 202.164062 Z M 151.675781 202.164062 " fill-opacity="1" fill-rule="nonzero"/></svg>